<?xml version="1.0" encoding="UTF-8" standalone="no"?>
<!-- Created with Inkscape (http://www.inkscape.org/) -->

<svg
   xmlns:dc="http://purl.org/dc/elements/1.1/"
   xmlns:cc="http://creativecommons.org/ns#"
   xmlns:rdf="http://www.w3.org/1999/02/22-rdf-syntax-ns#"
   xmlns:svg="http://www.w3.org/2000/svg"
   xmlns="http://www.w3.org/2000/svg"
   xmlns:sodipodi="http://sodipodi.sourceforge.net/DTD/sodipodi-0.dtd"
   xmlns:inkscape="http://www.inkscape.org/namespaces/inkscape"
   version="1.1"
   width="106.29921"
   height="106.29921"
   id="svg2"
   inkscape:version="0.48.2 r9819"
   sodipodi:docname="protoplate-logo-2.svg">
  <sodipodi:namedview
     pagecolor="#ffffff"
     bordercolor="#666666"
     borderopacity="1"
     objecttolerance="10"
     gridtolerance="10"
     guidetolerance="10"
     inkscape:pageopacity="0"
     inkscape:pageshadow="2"
     inkscape:window-width="1440"
     inkscape:window-height="779"
     id="namedview15"
     showgrid="false"
     inkscape:zoom="5.6535597"
     inkscape:cx="21.841896"
     inkscape:cy="53.149506"
     inkscape:window-x="0"
     inkscape:window-y="0"
     inkscape:window-maximized="1"
     inkscape:current-layer="svg2" />
  <defs
     id="defs4" />
  <metadata
     id="metadata7">
    <rdf:RDF>
      <cc:Work
         rdf:about="">
        <dc:format>image/svg+xml</dc:format>
        <dc:type
           rdf:resource="http://purl.org/dc/dcmitype/StillImage" />
        <dc:title />
      </cc:Work>
    </rdf:RDF>
  </metadata>
  <path
     inkscape:connector-curvature="0"
     style="fill:#000000;fill-opacity:1;stroke:#000000;stroke-width:0.3160226;stroke-linejoin:miter;stroke-miterlimit:4;stroke-opacity:1;stroke-dasharray:none"
     id="path2985"
     d="m 31.731753,88.582676 a 14.015218,14.015218 0 1 1 -28.0304361,0 14.015218,14.015218 0 1 1 28.0304361,0 z" />
  <path
     inkscape:connector-curvature="0"
     style="fill:none;stroke:#000000;stroke-width:1.77165354;stroke-linejoin:miter;stroke-miterlimit:4;stroke-opacity:1;stroke-dasharray:none"
     id="path2987"
     d="m 60.157216,88.574845 a 7.0076093,7.0076087 0 0 1 -14.015218,0 7.0076093,7.0076087 0 1 1 14.015218,0 z" />
  <path
     inkscape:connector-curvature="0"
     style="fill:none;stroke:#000000;stroke-width:1.77165354;stroke-linejoin:miter;stroke-miterlimit:4;stroke-opacity:1;stroke-dasharray:none"
     id="path2989"
     d="m 95.590309,88.583401 a 7.0076327,7.0033565 0 1 1 -14.015264,0 7.0076327,7.0033565 0 1 1 14.015264,0 z" />
  <path
     inkscape:connector-curvature="0"
     style="fill:#000000;fill-opacity:1;stroke:#000000;stroke-width:0.3160226;stroke-linejoin:miter;stroke-miterlimit:4;stroke-opacity:1;stroke-dasharray:none"
     id="path2991"
     d="m 31.731753,53.149616 a 14.015218,14.015218 0 1 1 -28.0304361,0 14.015218,14.015218 0 1 1 28.0304361,0 z" />
  <path
     inkscape:connector-curvature="0"
     style="fill:#000000;fill-opacity:1;stroke:#000000;stroke-width:0.3160226;stroke-linejoin:miter;stroke-miterlimit:4;stroke-opacity:1;stroke-dasharray:none"
     id="path2993"
     d="m 67.164824,53.149616 a 14.015218,14.015218 0 1 1 -28.030436,0 14.015218,14.015218 0 1 1 28.030436,0 z" />
  <path
     inkscape:connector-curvature="0"
     style="fill:#000000;fill-opacity:1;stroke:#000000;stroke-width:0.3160226;stroke-linejoin:miter;stroke-miterlimit:4;stroke-opacity:1;stroke-dasharray:none"
     id="path2995"
     d="m 102.59789,53.149616 a 14.015218,14.015218 0 1 1 -28.030431,0 14.015218,14.015218 0 1 1 28.030431,0 z" />
  <path
     inkscape:connector-curvature="0"
     style="fill:#000000;fill-opacity:1;stroke:#000000;stroke-width:0.3160226;stroke-linejoin:miter;stroke-miterlimit:4;stroke-opacity:1;stroke-dasharray:none"
     id="path2997"
     d="m 31.731753,17.716546 a 14.015218,14.015218 0 1 1 -28.0304361,0 14.015218,14.015218 0 1 1 28.0304361,0 z" />
  <path
     inkscape:connector-curvature="0"
     style="fill:#000000;fill-opacity:1;stroke:#000000;stroke-width:0.3160226;stroke-linejoin:miter;stroke-miterlimit:4;stroke-opacity:1;stroke-dasharray:none"
     id="path2999"
     d="m 67.164824,17.716546 a 14.015218,14.015218 0 1 1 -28.030436,0 14.015218,14.015218 0 1 1 28.030436,0 z" />
  <path
     inkscape:connector-curvature="0"
     style="fill:#000000;fill-opacity:1;stroke:#000000;stroke-width:0.3159636;stroke-linejoin:miter;stroke-miterlimit:4;stroke-opacity:1;stroke-dasharray:none"
     id="path3001"
     d="m 102.59792,17.716533 a 14.015248,14.009954 0 1 1 -28.030491,0 14.015248,14.009954 0 1 1 28.030491,0 z" />
</svg>
