<?xml version="1.0" encoding="UTF-8" standalone="no"?>
<!-- Created with Inkscape (http://www.inkscape.org/) -->

<svg
   xmlns:dc="http://purl.org/dc/elements/1.1/"
   xmlns:cc="http://creativecommons.org/ns#"
   xmlns:rdf="http://www.w3.org/1999/02/22-rdf-syntax-ns#"
   xmlns:svg="http://www.w3.org/2000/svg"
   xmlns="http://www.w3.org/2000/svg"
   xmlns:sodipodi="http://sodipodi.sourceforge.net/DTD/sodipodi-0.dtd"
   xmlns:inkscape="http://www.inkscape.org/namespaces/inkscape"
   version="1.1"
   width="101.9375"
   height="101.96875"
   id="svg2"
   inkscape:version="0.48.5 r10040"
   sodipodi:docname="protoplate-logo-proposal-1.svg">
  <sodipodi:namedview
     pagecolor="#ffffff"
     bordercolor="#666666"
     borderopacity="1"
     objecttolerance="10"
     gridtolerance="10"
     guidetolerance="10"
     inkscape:pageopacity="0"
     inkscape:pageshadow="2"
     inkscape:window-width="1440"
     inkscape:window-height="784"
     id="namedview15"
     showgrid="false"
     inkscape:zoom="2.2201482"
     inkscape:cx="-1.729568"
     inkscape:cy="52.350395"
     inkscape:window-x="0"
     inkscape:window-y="0"
     inkscape:window-maximized="1"
     inkscape:current-layer="svg2"
     fit-margin-top="0"
     fit-margin-left="0"
     fit-margin-right="0"
     fit-margin-bottom="0" />
  <defs
     id="defs4" />
  <metadata
     id="metadata7">
    <rdf:RDF>
      <cc:Work
         rdf:about="">
        <dc:format>image/svg+xml</dc:format>
        <dc:type
           rdf:resource="http://purl.org/dc/dcmitype/StillImage" />
        <dc:title></dc:title>
      </cc:Work>
    </rdf:RDF>
  </metadata>
  <path
     inkscape:connector-curvature="0"
     style="fill:#000000;fill-opacity:1;stroke:#000000;stroke-width:0.3160226;stroke-linejoin:miter;stroke-miterlimit:4;stroke-opacity:1;stroke-dasharray:none"
     id="path2985"
     d="m 28.200503,85.051426 a 14.015218,14.015218 0 0 1 -28.0304361,0 14.015218,14.015218 0 1 1 28.0304361,0 z" />
  <path
     inkscape:connector-curvature="0"
     style="fill:none;stroke:#000000;stroke-width:1.77165353;stroke-linejoin:miter;stroke-miterlimit:4;stroke-opacity:1;stroke-dasharray:none"
     id="path2987"
     d="m 63.633574,85.051426 a 14.015218,14.015218 0 0 1 -28.030436,0 14.015218,14.015218 0 1 1 28.030436,0 z" />
  <path
     inkscape:connector-curvature="0"
     style="fill:none;stroke:#000000;stroke-width:1.77165353;stroke-linejoin:miter;stroke-miterlimit:4;stroke-opacity:1;stroke-dasharray:none"
     id="path2989"
     d="m 99.06664,85.051426 a 14.015218,14.015218 0 1 1 -28.030431,0 14.015218,14.015218 0 1 1 28.030431,0 z" />
  <path
     inkscape:connector-curvature="0"
     style="fill:#000000;fill-opacity:1;stroke:#000000;stroke-width:0.3160226;stroke-linejoin:miter;stroke-miterlimit:4;stroke-opacity:1;stroke-dasharray:none"
     id="path2991"
     d="m 28.200503,49.618366 a 14.015218,14.015218 0 0 1 -28.0304361,0 14.015218,14.015218 0 1 1 28.0304361,0 z" />
  <path
     inkscape:connector-curvature="0"
     style="fill:#000000;fill-opacity:1;stroke:#000000;stroke-width:0.3160226;stroke-linejoin:miter;stroke-miterlimit:4;stroke-opacity:1;stroke-dasharray:none"
     id="path2993"
     d="m 63.633574,49.618366 a 14.015218,14.015218 0 0 1 -28.030436,0 14.015218,14.015218 0 1 1 28.030436,0 z" />
  <path
     inkscape:connector-curvature="0"
     style="fill:#000000;fill-opacity:1;stroke:#000000;stroke-width:0.3160226;stroke-linejoin:miter;stroke-miterlimit:4;stroke-opacity:1;stroke-dasharray:none"
     id="path2995"
     d="m 99.06664,49.618366 a 14.015218,14.015218 0 1 1 -28.030431,0 14.015218,14.015218 0 1 1 28.030431,0 z" />
  <path
     inkscape:connector-curvature="0"
     style="fill:#000000;fill-opacity:1;stroke:#000000;stroke-width:0.3160226;stroke-linejoin:miter;stroke-miterlimit:4;stroke-opacity:1;stroke-dasharray:none"
     id="path2997"
     d="m 28.200503,14.185296 a 14.015218,14.015218 0 0 1 -28.0304361,0 14.015218,14.015218 0 1 1 28.0304361,0 z" />
  <path
     inkscape:connector-curvature="0"
     style="fill:#000000;fill-opacity:1;stroke:#000000;stroke-width:0.3160226;stroke-linejoin:miter;stroke-miterlimit:4;stroke-opacity:1;stroke-dasharray:none"
     id="path2999"
     d="m 63.633574,14.185296 a 14.015218,14.015218 0 0 1 -28.030436,0 14.015218,14.015218 0 1 1 28.030436,0 z" />
  <path
     inkscape:connector-curvature="0"
     style="fill:#000000;fill-opacity:1;stroke:#000000;stroke-width:0.3160226;stroke-linejoin:miter;stroke-miterlimit:4;stroke-opacity:1;stroke-dasharray:none"
     id="path3001"
     d="m 99.06664,14.185296 a 14.015218,14.015218 0 1 1 -28.030431,0 14.015218,14.015218 0 1 1 28.030431,0 z" />
  <path
     d="m 30.200503,87.05143 a 14.015218,14.015218 0 0 1 -28.030436,0 14.015218,14.015218 0 1 1 28.030436,0 z"
     id="path3003"
     style="fill:#000000;fill-opacity:0.50196078;stroke:none"
     inkscape:connector-curvature="0" />
  <path
     d="m 65.633574,87.05143 a 14.015218,14.015218 0 0 1 -28.030436,0 14.015218,14.015218 0 1 1 28.030436,0 z"
     id="path3005"
     style="fill:none;stroke:#000000;stroke-width:1.77165353;stroke-linejoin:miter;stroke-miterlimit:4;stroke-opacity:0.50196078;stroke-dasharray:none"
     inkscape:connector-curvature="0" />
  <path
     d="m 101.06664,87.05143 a 14.015218,14.015218 0 1 1 -28.030431,0 14.015218,14.015218 0 1 1 28.030431,0 z"
     id="path3007"
     style="fill:none;stroke:#000000;stroke-width:1.77165353;stroke-linejoin:miter;stroke-miterlimit:4;stroke-opacity:0.50196078;stroke-dasharray:none"
     inkscape:connector-curvature="0" />
  <path
     d="m 30.200503,51.618366 a 14.015218,14.015218 0 0 1 -28.030436,0 14.015218,14.015218 0 1 1 28.030436,0 z"
     id="path3009"
     style="fill:#000000;fill-opacity:0.50196078;stroke:none"
     inkscape:connector-curvature="0" />
  <path
     d="m 65.633574,51.618366 a 14.015218,14.015218 0 0 1 -28.030436,0 14.015218,14.015218 0 1 1 28.030436,0 z"
     id="path3011"
     style="fill:#000000;fill-opacity:0.50196078;stroke:none"
     inkscape:connector-curvature="0" />
  <path
     d="m 101.06664,51.618366 a 14.015218,14.015218 0 1 1 -28.030431,0 14.015218,14.015218 0 1 1 28.030431,0 z"
     id="path3013"
     style="fill:#000000;fill-opacity:0.50196078;stroke:none"
     inkscape:connector-curvature="0" />
  <path
     d="m 30.200503,16.185296 a 14.015218,14.015218 0 0 1 -28.030436,0 14.015218,14.015218 0 1 1 28.030436,0 z"
     id="path3015"
     style="fill:#000000;fill-opacity:0.50196078;stroke:none"
     inkscape:connector-curvature="0" />
  <path
     d="m 65.633574,16.185296 a 14.015218,14.015218 0 0 1 -28.030436,0 14.015218,14.015218 0 1 1 28.030436,0 z"
     id="path3017"
     style="fill:#000000;fill-opacity:0.50196078;stroke:none"
     inkscape:connector-curvature="0" />
  <path
     d="m 101.06664,16.185296 a 14.015218,14.015218 0 1 1 -28.030431,0 14.015218,14.015218 0 1 1 28.030431,0 z"
     id="path3019"
     style="fill:#000000;fill-opacity:0.50196078;stroke:none"
     inkscape:connector-curvature="0" />
</svg>
