<?xml version="1.0" encoding="UTF-8" standalone="no"?>
<!-- Created with Inkscape (http://www.inkscape.org/) -->

<svg
   xmlns:dc="http://purl.org/dc/elements/1.1/"
   xmlns:cc="http://creativecommons.org/ns#"
   xmlns:rdf="http://www.w3.org/1999/02/22-rdf-syntax-ns#"
   xmlns:svg="http://www.w3.org/2000/svg"
   xmlns="http://www.w3.org/2000/svg"
   xmlns:sodipodi="http://sodipodi.sourceforge.net/DTD/sodipodi-0.dtd"
   xmlns:inkscape="http://www.inkscape.org/namespaces/inkscape"
   width="116.92913"
   height="116.92913"
   id="svg2"
   version="1.1"
   inkscape:version="0.48.2 r9819"
   sodipodi:docname="protoplate-logo-7.svg">
  <defs
     id="defs4" />
  <sodipodi:namedview
     id="base"
     pagecolor="#ffffff"
     bordercolor="#666666"
     borderopacity="1.0"
     inkscape:pageopacity="0.0"
     inkscape:pageshadow="2"
     inkscape:zoom="2"
     inkscape:cx="95.070171"
     inkscape:cy="7.7432082"
     inkscape:document-units="mm"
     inkscape:current-layer="layer1"
     showgrid="false"
     showguides="true"
     inkscape:guide-bbox="true"
     fit-margin-top="1"
     fit-margin-left="1"
     fit-margin-right="1"
     fit-margin-bottom="1"
     inkscape:window-width="1440"
     inkscape:window-height="779"
     inkscape:window-x="0"
     inkscape:window-y="0"
     inkscape:window-maximized="1"
     units="mm" />
  <metadata
     id="metadata7">
    <rdf:RDF>
      <cc:Work
         rdf:about="">
        <dc:format>image/svg+xml</dc:format>
        <dc:type
           rdf:resource="http://purl.org/dc/dcmitype/StillImage" />
        <dc:title></dc:title>
      </cc:Work>
    </rdf:RDF>
  </metadata>
  <g
     inkscape:label="Layer 1"
     inkscape:groupmode="layer"
     id="layer1"
     transform="translate(-164.91163,-213.80312)">
    <path
       sodipodi:nodetypes="cscccccscccscccsccscccscscc"
       d="m 251.16732,231.52245 c 1.53516,-1.53508 2.30275,-3.37266 2.30275,-5.51262 0,-2.23291 -0.7443,-4.09372 -2.23298,-5.58245 -1.53513,-1.53505 -3.39594,-2.2794 -5.58241,-2.23295 -2.18643,-0.0464 -4.04724,0.6979 -5.58242,2.23295 -1.53516,1.53526 -2.30272,3.37278 -2.30275,5.51265 3e-5,2.14002 0.79088,4.00081 2.37252,5.58242 2.74473,2.74475 4.11705,4.76839 4.11705,6.07088 0,1.30263 -1.39559,3.34951 -4.18682,6.14067 -1.53516,1.53523 -2.30272,3.41929 -2.30275,5.65221 3e-5,2.13997 0.74435,3.95428 2.23298,5.44286 l 0.48846,0.48846 c 2.55861,2.55866 3.7914,4.48924 3.69834,5.79175 -0.093,1.30261 -1.48863,3.30296 -4.1868,6.00111 -1.53516,1.53518 -2.30275,3.37276 -2.30275,5.51265 3e-5,2.13994 0.79086,4.00075 2.37252,5.58242 1.53518,1.53518 3.37275,2.30277 5.51265,2.30274 2.13991,3e-5 3.97749,-0.76756 5.51264,-2.30274 1.48865,-1.48863 2.25622,-3.32616 2.30275,-5.51265 0.0464,-2.1864 -0.69782,-4.04721 -2.23298,-5.58242 -2.79121,-2.79118 -4.1868,-4.83807 -4.18682,-6.14065 2e-5,-1.30256 1.39561,-3.34944 4.18682,-6.14067 1.53516,-1.53513 2.30275,-3.37266 2.30275,-5.51265 0,-2.13987 -0.76757,-3.97742 -2.30275,-5.51265 l -0.48846,-0.48846 c -2.55861,-2.55856 -3.79137,-4.48912 -3.69836,-5.79175 0.093,-1.30251 1.48867,-3.30286 4.18682,-6.00111"
       style="font-size:40px;font-style:normal;font-variant:normal;font-weight:normal;font-stretch:normal;line-height:125%;letter-spacing:0px;word-spacing:0px;fill:#000000;fill-opacity:1;stroke:none;font-family:Mercury Blob;-inkscape-font-specification:Mercury Blob"
       id="path2999"
       inkscape:connector-curvature="0" />
    <path
       inkscape:connector-curvature="0"
       id="path2990"
       style="font-size:40px;font-style:normal;font-variant:normal;font-weight:normal;font-stretch:normal;line-height:125%;letter-spacing:0px;word-spacing:0px;fill:#000000;fill-opacity:1;stroke:none;font-family:Mercury Blob;-inkscape-font-specification:Mercury Blob"
       d="m 204.574,231.52245 c 1.53515,-1.53508 2.30274,-3.37266 2.30274,-5.51262 0,-2.23291 -0.7443,-4.09372 -2.23298,-5.58245 -1.53513,-1.53505 -3.39594,-2.2794 -5.58241,-2.23295 -2.18643,-0.0464 -4.04724,0.6979 -5.58242,2.23295 -1.53516,1.53526 -2.30272,3.37278 -2.30275,5.51265 3e-5,2.14002 0.79088,4.00081 2.37252,5.58242 2.74473,2.74475 4.11706,4.76839 4.11706,6.07088 0,1.30263 -1.3956,3.34951 -4.18683,6.14067 -1.53516,1.53523 -2.30272,3.41929 -2.30275,5.65221 3e-5,2.13997 0.74435,3.95428 2.23298,5.44286 l 0.48846,0.48846 c 2.55861,2.55866 3.7914,4.48924 3.69834,5.79175 -0.093,1.30261 -1.48863,3.30296 -4.1868,6.00111 -1.53516,1.53518 -2.30275,3.37276 -2.30275,5.51265 3e-5,2.13994 0.79086,4.00075 2.37252,5.58242 1.53518,1.53518 3.37275,2.30277 5.51265,2.30274 2.13992,3e-5 3.97749,-0.76756 5.51265,-2.30274 1.48865,-1.48863 2.25621,-3.32616 2.30274,-5.51265 0.0464,-2.1864 -0.69782,-4.04721 -2.23297,-5.58242 -2.79121,-2.79118 -4.18681,-4.83807 -4.18683,-6.14065 2e-5,-1.30256 1.39562,-3.34944 4.18683,-6.14067 1.53515,-1.53513 2.30274,-3.37266 2.30274,-5.51265 0,-2.13987 -0.76756,-3.97742 -2.30274,-5.51265 l -0.48847,-0.48846 c -2.55861,-2.55856 -3.79137,-4.48912 -3.69836,-5.79175 0.093,-1.30251 1.48868,-3.30286 4.18683,-6.00111"
       sodipodi:nodetypes="cscccccscccscccsccscccscscc" />
    <path
       inkscape:connector-curvature="0"
       id="path2997"
       style="font-size:40px;font-style:normal;font-variant:normal;font-weight:normal;font-stretch:normal;line-height:125%;letter-spacing:0px;word-spacing:0px;fill:#000000;fill-opacity:1;stroke:none;font-family:Mercury Blob;-inkscape-font-specification:Mercury Blob"
       d="m 240.0952,231.52472 c 1.53518,1.53515 3.37286,2.30274 5.51297,2.30272 2.23303,0 4.09396,-0.74428 5.58279,-2.23295 1.5351,-1.53513 2.27953,-3.39595 2.23307,-5.58242 0.0464,-2.18642 -0.69794,-4.04726 -2.23307,-5.58242 -1.53536,-1.53515 -3.373,-2.30272 -5.513,-2.30274 -2.14016,2e-5 -4.00105,0.79088 -5.58278,2.37251 -2.7449,2.74473 -4.76867,4.11706 -6.07123,4.11706 -1.30273,0 -3.34973,-1.39559 -6.14107,-4.18683 -1.53533,-1.53515 -3.41948,-2.30272 -5.65255,-2.30277 -2.14009,5e-5 -3.95455,0.74438 -5.44318,2.233 l -0.48851,0.48847 c -2.55883,2.55861 -4.48951,3.79139 -5.7921,3.69833 -1.30268,-0.093 -3.30315,-1.48862 -6.00148,-4.1868 -1.53528,-1.53515 -3.37297,-2.30274 -5.51301,-2.30274 -2.14004,2e-5 -4.00098,0.79085 -5.58274,2.37251 -1.53528,1.53518 -2.30295,3.37276 -2.3029,5.51265 -5e-5,2.13992 0.76762,3.97749 2.3029,5.51265 1.48872,1.48865 3.32632,2.25622 5.51299,2.30275 2.18652,0.0464 4.04744,-0.69783 5.58276,-2.23298 2.79136,-2.79121 4.83837,-4.1868 6.14102,-4.18683 1.30264,3e-5 3.34967,1.39562 6.14107,4.18683 1.53518,1.53515 3.37286,2.30274 5.51297,2.30274 2.14002,-2e-5 3.97766,-0.76756 5.51299,-2.30274 l 0.48849,-0.48846 c 2.55873,-2.55861 4.48942,-3.7914 5.7921,-3.69837 1.3026,0.093 3.30308,1.48868 6.0015,4.18683"
       sodipodi:nodetypes="cscccccscccscccsccscccscscc" />
    <path
       sodipodi:nodetypes="cscccccscccscccsccscccscscc"
       d="m 240.0952,278.20546 c 1.53518,1.53515 3.37286,2.30274 5.51297,2.30272 2.23303,0 4.09396,-0.74428 5.58279,-2.23295 1.5351,-1.53514 2.27953,-3.39595 2.23307,-5.58242 0.0464,-2.18642 -0.69794,-4.04726 -2.23307,-5.58242 -1.53536,-1.53516 -3.373,-2.30272 -5.513,-2.30275 -2.14016,3e-5 -4.00105,0.79088 -5.58278,2.37252 -2.7449,2.74473 -4.76867,4.11706 -6.07123,4.11706 -1.30273,0 -3.34973,-1.3956 -6.14107,-4.18683 -1.53533,-1.53516 -3.41948,-2.30272 -5.65255,-2.30277 -2.14009,5e-5 -3.95455,0.74437 -5.44318,2.233 l -0.48851,0.48846 c -2.55883,2.55861 -4.48951,3.7914 -5.7921,3.69834 -1.30268,-0.093 -3.30315,-1.48862 -6.00148,-4.1868 -1.53528,-1.53516 -3.37297,-2.30275 -5.51301,-2.30275 -2.14004,3e-5 -4.00098,0.79086 -5.58274,2.37252 -1.53528,1.53518 -2.30295,3.37276 -2.3029,5.51265 -5e-5,2.13992 0.76762,3.97749 2.3029,5.51265 1.48872,1.48865 3.32632,2.25621 5.51299,2.30274 2.18652,0.0464 4.04744,-0.69782 5.58276,-2.23297 2.79136,-2.79121 4.83837,-4.1868 6.14102,-4.18683 1.30264,3e-5 3.34967,1.39562 6.14107,4.18683 1.53518,1.53515 3.37286,2.30274 5.51297,2.30274 2.14002,-2e-5 3.97766,-0.76756 5.51299,-2.30274 l 0.48849,-0.48847 c 2.55873,-2.55861 4.48942,-3.79139 5.7921,-3.69836 1.3026,0.093 3.30308,1.48868 6.0015,4.18683"
       style="font-size:40px;font-style:normal;font-variant:normal;font-weight:normal;font-stretch:normal;line-height:125%;letter-spacing:0px;word-spacing:0px;fill:#000000;fill-opacity:1;stroke:none;font-family:Mercury Blob;-inkscape-font-specification:Mercury Blob"
       id="path2993"
       inkscape:connector-curvature="0" />
    <path
       sodipodi:nodetypes="cscccccscccscccsccscccscscc"
       d="m 204.57375,278.20319 c 1.53513,-1.53509 2.30272,-3.37266 2.30272,-5.51263 0,-2.2329 -0.7443,-4.09371 -2.23295,-5.58244 -1.53511,-1.53506 -3.39587,-2.27941 -5.58232,-2.23295 -2.18637,-0.0464 -4.04716,0.69789 -5.58232,2.23295 -1.53513,1.53526 -2.30267,3.37278 -2.3027,5.51265 3e-5,2.14001 0.79086,4.0008 2.37247,5.58242 2.74468,2.74475 4.11698,4.76839 4.11698,6.07088 0,1.30263 -1.39557,3.34951 -4.18675,6.14067 -1.53513,1.53523 -2.30267,3.41928 -2.3027,5.65221 3e-5,2.13997 0.74433,3.95428 2.23293,5.44285 l 0.48846,0.48847 c 2.55856,2.55866 3.79133,4.48924 3.69827,5.79175 -0.093,1.30261 -1.4886,3.30296 -4.18673,6.00111 -1.53513,1.53518 -2.3027,3.37275 -2.3027,5.51265 3e-5,2.13994 0.79083,4.00075 2.37247,5.58241 1.53516,1.53518 3.37271,2.30277 5.51255,2.30275 2.13989,2e-5 3.97742,-0.76757 5.51255,-2.30275 1.48863,-1.48862 2.25619,-3.32615 2.30272,-5.51264 0.0464,-2.1864 -0.69782,-4.04722 -2.23295,-5.58242 -2.79116,-2.79119 -4.18673,-4.83807 -4.18675,-6.14065 2e-5,-1.30256 1.39559,-3.34944 4.18675,-6.14068 1.53513,-1.53513 2.30272,-3.37265 2.30272,-5.51264 0,-2.13987 -0.76757,-3.97742 -2.30272,-5.51265 l -0.48844,-0.48846 c -2.55858,-2.55856 -3.79132,-4.48912 -3.69831,-5.79175 0.093,-1.30251 1.48865,-3.30287 4.18675,-6.00111"
       style="font-size:40px;font-style:normal;font-variant:normal;font-weight:normal;font-stretch:normal;line-height:125%;letter-spacing:0px;word-spacing:0px;fill:#000000;fill-opacity:1;stroke:none;font-family:Mercury Blob;-inkscape-font-specification:Mercury Blob"
       id="path2995"
       inkscape:connector-curvature="0" />
    <path
       sodipodi:type="arc"
       style="fill:none;stroke:#000000;stroke-width:0.90905726;stroke-linejoin:miter;stroke-miterlimit:4;stroke-opacity:1;stroke-dasharray:none"
       id="path3779"
       sodipodi:cx="141.33296"
       sodipodi:cy="288.86365"
       sodipodi:rx="3.0935922"
       sodipodi:ry="2.6516504"
       d="m 144.42655,288.86365 a 3.0935922,2.6516504 0 1 1 -6.18718,0 3.0935922,2.6516504 0 1 1 6.18718,0 z"
       transform="matrix(1.8043224,0,0,2.1050429,-32.6959,-312.0019)" />
    <path
       transform="matrix(1.8043224,0,0,2.1050429,-9.3555313,-312.0019)"
       d="m 144.42655,288.86365 a 3.0935922,2.6516504 0 1 1 -6.18718,0 3.0935922,2.6516504 0 1 1 6.18718,0 z"
       sodipodi:ry="2.6516504"
       sodipodi:rx="3.0935922"
       sodipodi:cy="288.86365"
       sodipodi:cx="141.33296"
       id="path3781"
       style="fill:none;stroke:#000000;stroke-width:0.90905726;stroke-linejoin:miter;stroke-miterlimit:4;stroke-opacity:1;stroke-dasharray:none"
       sodipodi:type="arc" />
    <path
       transform="matrix(1.8043224,0,0,2.1050429,-32.6959,-288.74895)"
       d="m 144.42655,288.86365 a 3.0935922,2.6516504 0 1 1 -6.18718,0 3.0935922,2.6516504 0 1 1 6.18718,0 z"
       sodipodi:ry="2.6516504"
       sodipodi:rx="3.0935922"
       sodipodi:cy="288.86365"
       sodipodi:cx="141.33296"
       id="path3785"
       style="fill:none;stroke:#000000;stroke-width:0.90905726;stroke-linejoin:miter;stroke-miterlimit:4;stroke-opacity:1;stroke-dasharray:none"
       sodipodi:type="arc" />
    <path
       sodipodi:type="arc"
       style="fill:none;stroke:#000000;stroke-width:0.90905726;stroke-linejoin:miter;stroke-miterlimit:4;stroke-opacity:1;stroke-dasharray:none"
       id="path3787"
       sodipodi:cx="141.33296"
       sodipodi:cy="288.86365"
       sodipodi:rx="3.0935922"
       sodipodi:ry="2.6516504"
       d="m 144.42655,288.86365 a 3.0935922,2.6516504 0 1 1 -6.18718,0 3.0935922,2.6516504 0 1 1 6.18718,0 z"
       transform="matrix(1.8043224,0,0,2.1050429,-9.3555313,-288.74895)" />
    <path
       sodipodi:type="arc"
       style="fill:none;stroke:#000000;stroke-width:0.90905726;stroke-linejoin:miter;stroke-miterlimit:4;stroke-opacity:1;stroke-dasharray:none"
       id="path3797"
       sodipodi:cx="141.33296"
       sodipodi:cy="288.86365"
       sodipodi:rx="3.0935922"
       sodipodi:ry="2.6516504"
       d="m 144.42655,288.86365 a 3.0935922,2.6516504 0 1 1 -6.18718,0 3.0935922,2.6516504 0 1 1 6.18718,0 z"
       transform="matrix(1.8043224,0,0,2.1050429,13.984845,-312.0019)" />
    <path
       transform="matrix(1.8043224,0,0,2.1050429,13.984845,-288.74895)"
       d="m 144.42655,288.86365 a 3.0935922,2.6516504 0 1 1 -6.18718,0 3.0935922,2.6516504 0 1 1 6.18718,0 z"
       sodipodi:ry="2.6516504"
       sodipodi:rx="3.0935922"
       sodipodi:cy="288.86365"
       sodipodi:cx="141.33296"
       id="path3801"
       style="fill:none;stroke:#000000;stroke-width:0.90905726;stroke-linejoin:miter;stroke-miterlimit:4;stroke-opacity:1;stroke-dasharray:none"
       sodipodi:type="arc" />
    <path
       sodipodi:type="arc"
       style="fill:none;stroke:#000000;stroke-width:0.90905726;stroke-linejoin:miter;stroke-miterlimit:4;stroke-opacity:1;stroke-dasharray:none"
       id="path3803"
       sodipodi:cx="141.33296"
       sodipodi:cy="288.86365"
       sodipodi:rx="3.0935922"
       sodipodi:ry="2.6516504"
       d="m 144.42655,288.86365 a 3.0935922,2.6516504 0 1 1 -6.18718,0 3.0935922,2.6516504 0 1 1 6.18718,0 z"
       transform="matrix(1.8043224,0,0,2.1050429,-79.201801,-312.0019)" />
    <path
       transform="matrix(1.8043224,0,0,2.1050429,-79.201798,-288.74895)"
       d="m 144.42655,288.86365 a 3.0935922,2.6516504 0 1 1 -6.18718,0 3.0935922,2.6516504 0 1 1 6.18718,0 z"
       sodipodi:ry="2.6516504"
       sodipodi:rx="3.0935922"
       sodipodi:cy="288.86365"
       sodipodi:cx="141.33296"
       id="path3807"
       style="fill:none;stroke:#000000;stroke-width:0.90905726;stroke-linejoin:miter;stroke-miterlimit:4;stroke-opacity:1;stroke-dasharray:none"
       sodipodi:type="arc" />
    <path
       transform="matrix(1.8043223,0,0,2.1050429,13.984845,-335.42969)"
       d="m 144.42655,288.86365 a 3.0935922,2.6516504 0 1 1 -6.18718,0 3.0935922,2.6516504 0 1 1 6.18718,0 z"
       sodipodi:ry="2.6516504"
       sodipodi:rx="3.0935922"
       sodipodi:cy="288.86365"
       sodipodi:cx="141.33296"
       id="path3823"
       style="fill:none;stroke:#000000;stroke-width:0.90905732;stroke-linejoin:miter;stroke-miterlimit:4;stroke-opacity:1;stroke-dasharray:none"
       sodipodi:type="arc" />
    <path
       transform="matrix(1.8043223,0,0,2.1050429,-79.201786,-335.42969)"
       d="m 144.42655,288.86365 a 3.0935922,2.6516504 0 1 1 -6.18718,0 3.0935922,2.6516504 0 1 1 6.18718,0 z"
       sodipodi:ry="2.6516504"
       sodipodi:rx="3.0935922"
       sodipodi:cy="288.86365"
       sodipodi:cx="141.33296"
       id="path3827"
       style="fill:none;stroke:#000000;stroke-width:0.90905732;stroke-linejoin:miter;stroke-miterlimit:4;stroke-opacity:1;stroke-dasharray:none"
       sodipodi:type="arc" />
    <path
       sodipodi:type="arc"
       style="fill:none;stroke:#000000;stroke-width:0.90905726;stroke-linejoin:miter;stroke-miterlimit:4;stroke-opacity:1;stroke-dasharray:none"
       id="path3843"
       sodipodi:cx="141.33296"
       sodipodi:cy="288.86365"
       sodipodi:rx="3.0935922"
       sodipodi:ry="2.6516504"
       d="m 144.42655,288.86365 a 3.0935922,2.6516504 0 1 1 -6.18718,0 3.0935922,2.6516504 0 1 1 6.18718,0 z"
       transform="matrix(1.8043226,0,0,2.1050429,-32.695917,-358.68264)" />
    <path
       sodipodi:type="arc"
       style="fill:none;stroke:#000000;stroke-width:0.90905726;stroke-linejoin:miter;stroke-miterlimit:4;stroke-opacity:1;stroke-dasharray:none"
       id="path3847"
       sodipodi:cx="141.33296"
       sodipodi:cy="288.86365"
       sodipodi:rx="3.0935922"
       sodipodi:ry="2.6516504"
       d="m 144.42655,288.86365 a 3.0935922,2.6516504 0 1 1 -6.18718,0 3.0935922,2.6516504 0 1 1 6.18718,0 z"
       transform="matrix(1.8043226,0,0,2.1050429,13.984796,-358.68264)" />
    <path
       sodipodi:type="arc"
       style="fill:none;stroke:#000000;stroke-width:0.90905726;stroke-linejoin:miter;stroke-miterlimit:4;stroke-opacity:1;stroke-dasharray:none"
       id="path3849"
       sodipodi:cx="141.33296"
       sodipodi:cy="288.86365"
       sodipodi:rx="3.0935922"
       sodipodi:ry="2.6516504"
       d="m 144.42655,288.86365 a 3.0935922,2.6516504 0 1 1 -6.18718,0 3.0935922,2.6516504 0 1 1 6.18718,0 z"
       transform="matrix(1.8043226,0,0,2.1050429,-79.201821,-358.68264)" />
    <path
       transform="matrix(1.8043227,0,0,2.1050429,13.984796,-382.11042)"
       d="m 144.42655,288.86365 a 3.0935922,2.6516504 0 1 1 -6.18718,0 3.0935922,2.6516504 0 1 1 6.18718,0 z"
       sodipodi:ry="2.6516504"
       sodipodi:rx="3.0935922"
       sodipodi:cy="288.86365"
       sodipodi:cx="141.33296"
       id="path3889"
       style="fill:none;stroke:#000000;stroke-width:0.9090572;stroke-linejoin:miter;stroke-miterlimit:4;stroke-opacity:1;stroke-dasharray:none"
       sodipodi:type="arc" />
    <path
       transform="matrix(1.8043227,0,0,2.1050429,-79.20184,-382.11042)"
       d="m 144.42655,288.86365 a 3.0935922,2.6516504 0 1 1 -6.18718,0 3.0935922,2.6516504 0 1 1 6.18718,0 z"
       sodipodi:ry="2.6516504"
       sodipodi:rx="3.0935922"
       sodipodi:cy="288.86365"
       sodipodi:cx="141.33296"
       id="path3891"
       style="fill:none;stroke:#000000;stroke-width:0.9090572;stroke-linejoin:miter;stroke-miterlimit:4;stroke-opacity:1;stroke-dasharray:none"
       sodipodi:type="arc" />
  </g>
</svg>
